<mxfile host="app.diagrams.net" modified="2022-06-21T03:54:57.131Z" agent="5.0 (Windows NT 10.0; Win64; x64) AppleWebKit/537.36 (KHTML, like Gecko) Chrome/86.0.4240.198 Safari/537.36" etag="2UqmqCaWbhr5uWhjkZLf" version="20.0.1" type="github">
  <diagram id="AJKiaGuHHVgMCP4SHh_J" name="Page-1">
    <mxGraphModel dx="1038" dy="580" grid="1" gridSize="10" guides="1" tooltips="1" connect="1" arrows="1" fold="1" page="1" pageScale="1" pageWidth="1169" pageHeight="827" math="0" shadow="0">
      <root>
        <mxCell id="0" />
        <mxCell id="1" parent="0" />
        <mxCell id="8Tj8SEa8ThOnRHg0HMap-90" value="" style="rounded=0;whiteSpace=wrap;html=1;fontSize=14;fillColor=none;" vertex="1" parent="1">
          <mxGeometry x="125" y="150" width="635" height="640" as="geometry" />
        </mxCell>
        <mxCell id="8Tj8SEa8ThOnRHg0HMap-1" value="" style="rounded=1;whiteSpace=wrap;html=1;" vertex="1" parent="1">
          <mxGeometry x="210" y="152" width="330" height="77" as="geometry" />
        </mxCell>
        <mxCell id="8Tj8SEa8ThOnRHg0HMap-9" value="" style="group" vertex="1" connectable="0" parent="1">
          <mxGeometry x="221" y="184" width="70" height="40" as="geometry" />
        </mxCell>
        <mxCell id="8Tj8SEa8ThOnRHg0HMap-2" value="" style="rounded=0;whiteSpace=wrap;html=1;dashed=1;" vertex="1" parent="8Tj8SEa8ThOnRHg0HMap-9">
          <mxGeometry x="-1" width="70" height="30" as="geometry" />
        </mxCell>
        <mxCell id="8Tj8SEa8ThOnRHg0HMap-4" value="&lt;font style=&quot;font-size: 10px;&quot;&gt;同框&lt;br&gt;检测&lt;/font&gt;" style="text;html=1;strokeColor=none;fillColor=none;align=center;verticalAlign=middle;whiteSpace=wrap;rounded=0;" vertex="1" parent="8Tj8SEa8ThOnRHg0HMap-9">
          <mxGeometry x="-1" width="30" height="30" as="geometry" />
        </mxCell>
        <mxCell id="8Tj8SEa8ThOnRHg0HMap-5" value="&lt;span style=&quot;font-size: 10px;&quot;&gt;SDK&lt;/span&gt;" style="text;html=1;strokeColor=none;fillColor=none;align=center;verticalAlign=middle;whiteSpace=wrap;rounded=0;" vertex="1" parent="8Tj8SEa8ThOnRHg0HMap-9">
          <mxGeometry x="40" y="10" width="30" height="30" as="geometry" />
        </mxCell>
        <mxCell id="8Tj8SEa8ThOnRHg0HMap-10" value="" style="group" vertex="1" connectable="0" parent="1">
          <mxGeometry x="300" y="184" width="70" height="40" as="geometry" />
        </mxCell>
        <mxCell id="8Tj8SEa8ThOnRHg0HMap-11" value="" style="rounded=0;whiteSpace=wrap;html=1;dashed=1;" vertex="1" parent="8Tj8SEa8ThOnRHg0HMap-10">
          <mxGeometry width="70" height="30" as="geometry" />
        </mxCell>
        <mxCell id="8Tj8SEa8ThOnRHg0HMap-12" value="&lt;span style=&quot;font-size: 10px;&quot;&gt;证件识别&lt;/span&gt;" style="text;html=1;strokeColor=none;fillColor=none;align=center;verticalAlign=middle;whiteSpace=wrap;rounded=0;" vertex="1" parent="8Tj8SEa8ThOnRHg0HMap-10">
          <mxGeometry width="30" height="30" as="geometry" />
        </mxCell>
        <mxCell id="8Tj8SEa8ThOnRHg0HMap-13" value="&lt;span style=&quot;font-size: 10px;&quot;&gt;SDK&lt;/span&gt;" style="text;html=1;strokeColor=none;fillColor=none;align=center;verticalAlign=middle;whiteSpace=wrap;rounded=0;" vertex="1" parent="8Tj8SEa8ThOnRHg0HMap-10">
          <mxGeometry x="40" y="10" width="30" height="30" as="geometry" />
        </mxCell>
        <mxCell id="8Tj8SEa8ThOnRHg0HMap-14" value="" style="group" vertex="1" connectable="0" parent="1">
          <mxGeometry x="380" y="184" width="70" height="40" as="geometry" />
        </mxCell>
        <mxCell id="8Tj8SEa8ThOnRHg0HMap-15" value="" style="rounded=0;whiteSpace=wrap;html=1;dashed=1;" vertex="1" parent="8Tj8SEa8ThOnRHg0HMap-14">
          <mxGeometry width="70" height="30" as="geometry" />
        </mxCell>
        <mxCell id="8Tj8SEa8ThOnRHg0HMap-16" value="&lt;span style=&quot;font-size: 10px;&quot;&gt;文件识别&lt;/span&gt;" style="text;html=1;strokeColor=none;fillColor=none;align=center;verticalAlign=middle;whiteSpace=wrap;rounded=0;" vertex="1" parent="8Tj8SEa8ThOnRHg0HMap-14">
          <mxGeometry width="30" height="30" as="geometry" />
        </mxCell>
        <mxCell id="8Tj8SEa8ThOnRHg0HMap-17" value="&lt;span style=&quot;font-size: 10px;&quot;&gt;SDK&lt;/span&gt;" style="text;html=1;strokeColor=none;fillColor=none;align=center;verticalAlign=middle;whiteSpace=wrap;rounded=0;" vertex="1" parent="8Tj8SEa8ThOnRHg0HMap-14">
          <mxGeometry x="40" y="10" width="30" height="30" as="geometry" />
        </mxCell>
        <mxCell id="8Tj8SEa8ThOnRHg0HMap-18" value="" style="group" vertex="1" connectable="0" parent="1">
          <mxGeometry x="460" y="182" width="70" height="40" as="geometry" />
        </mxCell>
        <mxCell id="8Tj8SEa8ThOnRHg0HMap-19" value="" style="rounded=0;whiteSpace=wrap;html=1;dashed=1;" vertex="1" parent="8Tj8SEa8ThOnRHg0HMap-18">
          <mxGeometry width="70" height="30" as="geometry" />
        </mxCell>
        <mxCell id="8Tj8SEa8ThOnRHg0HMap-20" value="&lt;span style=&quot;font-size: 10px;&quot;&gt;ASR&lt;/span&gt;" style="text;html=1;strokeColor=none;fillColor=none;align=center;verticalAlign=middle;whiteSpace=wrap;rounded=0;" vertex="1" parent="8Tj8SEa8ThOnRHg0HMap-18">
          <mxGeometry width="30" height="30" as="geometry" />
        </mxCell>
        <mxCell id="8Tj8SEa8ThOnRHg0HMap-21" value="&lt;span style=&quot;font-size: 10px;&quot;&gt;SDK&lt;/span&gt;" style="text;html=1;strokeColor=none;fillColor=none;align=center;verticalAlign=middle;whiteSpace=wrap;rounded=0;" vertex="1" parent="8Tj8SEa8ThOnRHg0HMap-18">
          <mxGeometry x="40" y="10" width="30" height="30" as="geometry" />
        </mxCell>
        <mxCell id="8Tj8SEa8ThOnRHg0HMap-27" value="" style="group" vertex="1" connectable="0" parent="1">
          <mxGeometry x="581" y="179" width="70" height="40" as="geometry" />
        </mxCell>
        <mxCell id="8Tj8SEa8ThOnRHg0HMap-28" value="" style="rounded=0;whiteSpace=wrap;html=1;dashed=1;" vertex="1" parent="8Tj8SEa8ThOnRHg0HMap-27">
          <mxGeometry width="70" height="30" as="geometry" />
        </mxCell>
        <mxCell id="8Tj8SEa8ThOnRHg0HMap-29" value="&lt;span style=&quot;font-size: 10px;&quot;&gt;RTC&lt;/span&gt;" style="text;html=1;strokeColor=none;fillColor=none;align=center;verticalAlign=middle;whiteSpace=wrap;rounded=0;" vertex="1" parent="8Tj8SEa8ThOnRHg0HMap-27">
          <mxGeometry width="30" height="30" as="geometry" />
        </mxCell>
        <mxCell id="8Tj8SEa8ThOnRHg0HMap-30" value="&lt;span style=&quot;font-size: 10px;&quot;&gt;SDK&lt;/span&gt;" style="text;html=1;strokeColor=none;fillColor=none;align=center;verticalAlign=middle;whiteSpace=wrap;rounded=0;" vertex="1" parent="8Tj8SEa8ThOnRHg0HMap-27">
          <mxGeometry x="40" y="10" width="30" height="30" as="geometry" />
        </mxCell>
        <mxCell id="8Tj8SEa8ThOnRHg0HMap-31" value="&lt;b&gt;Ipad APP&lt;/b&gt;" style="text;html=1;strokeColor=none;fillColor=none;align=center;verticalAlign=middle;whiteSpace=wrap;rounded=0;dashed=1;fontSize=10;" vertex="1" parent="1">
          <mxGeometry x="340" y="154" width="70" height="30" as="geometry" />
        </mxCell>
        <mxCell id="8Tj8SEa8ThOnRHg0HMap-32" value="" style="rounded=1;whiteSpace=wrap;html=1;fontSize=10;fillColor=none;" vertex="1" parent="1">
          <mxGeometry x="551" y="152.5" width="120" height="76.5" as="geometry" />
        </mxCell>
        <mxCell id="8Tj8SEa8ThOnRHg0HMap-33" value="&lt;b&gt;e钱庄 sdk&lt;/b&gt;" style="text;html=1;strokeColor=none;fillColor=none;align=center;verticalAlign=middle;whiteSpace=wrap;rounded=0;dashed=1;fontSize=10;" vertex="1" parent="1">
          <mxGeometry x="576" y="149" width="70" height="30" as="geometry" />
        </mxCell>
        <mxCell id="8Tj8SEa8ThOnRHg0HMap-38" value="" style="rounded=1;whiteSpace=wrap;html=1;fontSize=10;fillColor=none;" vertex="1" parent="1">
          <mxGeometry x="686" y="153" width="70" height="76.5" as="geometry" />
        </mxCell>
        <mxCell id="8Tj8SEa8ThOnRHg0HMap-39" value="&lt;b&gt;pc&lt;/b&gt;" style="text;html=1;strokeColor=none;fillColor=none;align=center;verticalAlign=middle;whiteSpace=wrap;rounded=0;dashed=1;fontSize=10;" vertex="1" parent="1">
          <mxGeometry x="697" y="150" width="53" height="30" as="geometry" />
        </mxCell>
        <mxCell id="8Tj8SEa8ThOnRHg0HMap-41" value="" style="rounded=1;whiteSpace=wrap;html=1;fontSize=10;fillColor=none;" vertex="1" parent="1">
          <mxGeometry x="210" y="240" width="550" height="50" as="geometry" />
        </mxCell>
        <mxCell id="8Tj8SEa8ThOnRHg0HMap-43" value="智慧厅堂" style="rounded=0;whiteSpace=wrap;html=1;fontSize=10;fillColor=none;" vertex="1" parent="1">
          <mxGeometry x="230" y="250" width="75" height="30" as="geometry" />
        </mxCell>
        <mxCell id="8Tj8SEa8ThOnRHg0HMap-44" value="e钱庄" style="rounded=0;whiteSpace=wrap;html=1;fontSize=10;fillColor=none;" vertex="1" parent="1">
          <mxGeometry x="325" y="250" width="75" height="30" as="geometry" />
        </mxCell>
        <mxCell id="8Tj8SEa8ThOnRHg0HMap-45" value="ICOP/ESB" style="rounded=1;whiteSpace=wrap;html=1;fontSize=10;fillColor=none;" vertex="1" parent="1">
          <mxGeometry x="210" y="300" width="550" height="40" as="geometry" />
        </mxCell>
        <mxCell id="8Tj8SEa8ThOnRHg0HMap-46" value="" style="rounded=1;whiteSpace=wrap;html=1;fontSize=10;fillColor=none;" vertex="1" parent="1">
          <mxGeometry x="215" y="350" width="540" height="200" as="geometry" />
        </mxCell>
        <mxCell id="8Tj8SEa8ThOnRHg0HMap-49" value="业务中心" style="rounded=0;whiteSpace=wrap;html=1;fontSize=10;fillColor=none;" vertex="1" parent="1">
          <mxGeometry x="598" y="373" width="94" height="41" as="geometry" />
        </mxCell>
        <mxCell id="8Tj8SEa8ThOnRHg0HMap-50" value="质检中心" style="rounded=0;whiteSpace=wrap;html=1;fontSize=10;fillColor=none;" vertex="1" parent="1">
          <mxGeometry x="438" y="373" width="94" height="41" as="geometry" />
        </mxCell>
        <mxCell id="8Tj8SEa8ThOnRHg0HMap-51" value="录像管理" style="rounded=0;whiteSpace=wrap;html=1;fontSize=10;fillColor=none;" vertex="1" parent="1">
          <mxGeometry x="270" y="372.5" width="94" height="41" as="geometry" />
        </mxCell>
        <mxCell id="8Tj8SEa8ThOnRHg0HMap-52" value="话术中心" style="rounded=0;whiteSpace=wrap;html=1;fontSize=10;fillColor=none;" vertex="1" parent="1">
          <mxGeometry x="270" y="429.5" width="94" height="41" as="geometry" />
        </mxCell>
        <mxCell id="8Tj8SEa8ThOnRHg0HMap-53" value="内管中心" style="rounded=0;whiteSpace=wrap;html=1;fontSize=10;fillColor=none;" vertex="1" parent="1">
          <mxGeometry x="438" y="429.5" width="94" height="41" as="geometry" />
        </mxCell>
        <mxCell id="8Tj8SEa8ThOnRHg0HMap-54" value="后台管理" style="rounded=0;whiteSpace=wrap;html=1;fontSize=10;fillColor=none;" vertex="1" parent="1">
          <mxGeometry x="598" y="429.5" width="94" height="41" as="geometry" />
        </mxCell>
        <mxCell id="8Tj8SEa8ThOnRHg0HMap-55" value="现场录制中心" style="rounded=0;whiteSpace=wrap;html=1;fontSize=10;fillColor=none;" vertex="1" parent="1">
          <mxGeometry x="270" y="480" width="94" height="41" as="geometry" />
        </mxCell>
        <mxCell id="8Tj8SEa8ThOnRHg0HMap-56" value="远程录制中心" style="rounded=0;whiteSpace=wrap;html=1;fontSize=10;fillColor=none;" vertex="1" parent="1">
          <mxGeometry x="436" y="480" width="94" height="41" as="geometry" />
        </mxCell>
        <mxCell id="8Tj8SEa8ThOnRHg0HMap-57" value="柜面录制中心" style="rounded=0;whiteSpace=wrap;html=1;fontSize=10;fillColor=none;" vertex="1" parent="1">
          <mxGeometry x="598" y="480" width="94" height="41" as="geometry" />
        </mxCell>
        <mxCell id="8Tj8SEa8ThOnRHg0HMap-58" value="" style="rounded=1;whiteSpace=wrap;html=1;fontSize=10;fillColor=none;" vertex="1" parent="1">
          <mxGeometry x="324" y="560" width="426" height="230" as="geometry" />
        </mxCell>
        <mxCell id="8Tj8SEa8ThOnRHg0HMap-59" value="" style="rounded=0;whiteSpace=wrap;html=1;fontSize=10;fillColor=none;" vertex="1" parent="1">
          <mxGeometry x="510" y="599" width="220" height="180" as="geometry" />
        </mxCell>
        <mxCell id="8Tj8SEa8ThOnRHg0HMap-60" value="会场服务" style="rounded=0;whiteSpace=wrap;html=1;fontSize=10;fillColor=none;" vertex="1" parent="1">
          <mxGeometry x="531" y="652" width="70" height="30" as="geometry" />
        </mxCell>
        <mxCell id="8Tj8SEa8ThOnRHg0HMap-61" value="音视频采集" style="rounded=0;whiteSpace=wrap;html=1;fontSize=10;fillColor=none;" vertex="1" parent="1">
          <mxGeometry x="531" y="699" width="70" height="30" as="geometry" />
        </mxCell>
        <mxCell id="8Tj8SEa8ThOnRHg0HMap-63" value="音视频推流" style="rounded=0;whiteSpace=wrap;html=1;fontSize=10;fillColor=none;" vertex="1" parent="1">
          <mxGeometry x="531" y="743" width="70" height="30" as="geometry" />
        </mxCell>
        <mxCell id="8Tj8SEa8ThOnRHg0HMap-64" value="IM通讯" style="rounded=0;whiteSpace=wrap;html=1;fontSize=10;fillColor=none;" vertex="1" parent="1">
          <mxGeometry x="629" y="652" width="70" height="30" as="geometry" />
        </mxCell>
        <mxCell id="8Tj8SEa8ThOnRHg0HMap-65" value="屏幕录制" style="rounded=0;whiteSpace=wrap;html=1;fontSize=10;fillColor=none;" vertex="1" parent="1">
          <mxGeometry x="629" y="699" width="70" height="30" as="geometry" />
        </mxCell>
        <mxCell id="8Tj8SEa8ThOnRHg0HMap-66" value="" style="rounded=0;whiteSpace=wrap;html=1;fontSize=10;fillColor=none;" vertex="1" parent="1">
          <mxGeometry x="340" y="599" width="70" height="180" as="geometry" />
        </mxCell>
        <mxCell id="8Tj8SEa8ThOnRHg0HMap-67" value="影像平台" style="rounded=0;whiteSpace=wrap;html=1;fontSize=10;fillColor=none;" vertex="1" parent="1">
          <mxGeometry x="345" y="632" width="60" height="30" as="geometry" />
        </mxCell>
        <mxCell id="8Tj8SEa8ThOnRHg0HMap-68" value="ecif系统" style="rounded=0;whiteSpace=wrap;html=1;fontSize=10;fillColor=none;" vertex="1" parent="1">
          <mxGeometry x="345" y="670" width="60" height="30" as="geometry" />
        </mxCell>
        <mxCell id="8Tj8SEa8ThOnRHg0HMap-69" value="理财及代销系统" style="rounded=0;whiteSpace=wrap;html=1;fontSize=10;fillColor=none;" vertex="1" parent="1">
          <mxGeometry x="345" y="709" width="60" height="30" as="geometry" />
        </mxCell>
        <mxCell id="8Tj8SEa8ThOnRHg0HMap-70" value="银保通" style="rounded=0;whiteSpace=wrap;html=1;fontSize=10;fillColor=none;" vertex="1" parent="1">
          <mxGeometry x="345" y="743" width="60" height="30" as="geometry" />
        </mxCell>
        <mxCell id="8Tj8SEa8ThOnRHg0HMap-71" value="" style="rounded=0;whiteSpace=wrap;html=1;fontSize=10;fillColor=none;" vertex="1" parent="1">
          <mxGeometry x="420" y="599" width="70" height="180" as="geometry" />
        </mxCell>
        <mxCell id="8Tj8SEa8ThOnRHg0HMap-72" value="TTS" style="rounded=0;whiteSpace=wrap;html=1;fontSize=10;fillColor=none;" vertex="1" parent="1">
          <mxGeometry x="425" y="632" width="60" height="30" as="geometry" />
        </mxCell>
        <mxCell id="8Tj8SEa8ThOnRHg0HMap-73" value="OCR" style="rounded=0;whiteSpace=wrap;html=1;fontSize=10;fillColor=none;" vertex="1" parent="1">
          <mxGeometry x="425" y="672" width="60" height="30" as="geometry" />
        </mxCell>
        <mxCell id="8Tj8SEa8ThOnRHg0HMap-74" value="CFCA" style="rounded=0;whiteSpace=wrap;html=1;fontSize=10;fillColor=none;" vertex="1" parent="1">
          <mxGeometry x="425" y="709" width="60" height="30" as="geometry" />
        </mxCell>
        <mxCell id="8Tj8SEa8ThOnRHg0HMap-75" value="人脸识别" style="rounded=0;whiteSpace=wrap;html=1;fontSize=10;fillColor=none;" vertex="1" parent="1">
          <mxGeometry x="425" y="743" width="60" height="30" as="geometry" />
        </mxCell>
        <mxCell id="8Tj8SEa8ThOnRHg0HMap-76" value="&lt;b&gt;行方系统&lt;/b&gt;" style="text;html=1;strokeColor=none;fillColor=none;align=center;verticalAlign=middle;whiteSpace=wrap;rounded=0;dashed=1;fontSize=10;" vertex="1" parent="1">
          <mxGeometry x="499" y="560" width="70" height="30" as="geometry" />
        </mxCell>
        <mxCell id="8Tj8SEa8ThOnRHg0HMap-77" value="&lt;b&gt;支撑系统&lt;/b&gt;" style="text;html=1;strokeColor=none;fillColor=none;align=center;verticalAlign=middle;whiteSpace=wrap;rounded=0;dashed=1;fontSize=10;" vertex="1" parent="1">
          <mxGeometry x="340" y="591" width="70" height="30" as="geometry" />
        </mxCell>
        <mxCell id="8Tj8SEa8ThOnRHg0HMap-78" value="&lt;b&gt;AI系统&lt;/b&gt;" style="text;html=1;strokeColor=none;fillColor=none;align=center;verticalAlign=middle;whiteSpace=wrap;rounded=0;dashed=1;fontSize=10;" vertex="1" parent="1">
          <mxGeometry x="420" y="591" width="70" height="30" as="geometry" />
        </mxCell>
        <mxCell id="8Tj8SEa8ThOnRHg0HMap-79" value="&lt;b&gt;网易音视频系统&lt;/b&gt;" style="text;html=1;strokeColor=none;fillColor=none;align=center;verticalAlign=middle;whiteSpace=wrap;rounded=0;dashed=1;fontSize=10;" vertex="1" parent="1">
          <mxGeometry x="585" y="594" width="89" height="30" as="geometry" />
        </mxCell>
        <mxCell id="8Tj8SEa8ThOnRHg0HMap-80" value="&lt;b&gt;AI系统&lt;/b&gt;" style="text;html=1;strokeColor=none;fillColor=none;align=center;verticalAlign=middle;whiteSpace=wrap;rounded=0;dashed=1;fontSize=10;" vertex="1" parent="1">
          <mxGeometry x="219" y="564" width="70" height="30" as="geometry" />
        </mxCell>
        <mxCell id="8Tj8SEa8ThOnRHg0HMap-82" value="" style="rounded=1;whiteSpace=wrap;html=1;fontSize=10;fillColor=none;" vertex="1" parent="1">
          <mxGeometry x="225" y="560" width="75" height="230" as="geometry" />
        </mxCell>
        <mxCell id="8Tj8SEa8ThOnRHg0HMap-83" value="签字动作识别" style="rounded=0;whiteSpace=wrap;html=1;fontSize=10;fillColor=none;" vertex="1" parent="1">
          <mxGeometry x="231" y="622" width="60" height="30" as="geometry" />
        </mxCell>
        <mxCell id="8Tj8SEa8ThOnRHg0HMap-85" value="&lt;b&gt;&lt;font style=&quot;font-size: 14px;&quot;&gt;用户层&lt;/font&gt;&lt;/b&gt;" style="text;html=1;strokeColor=none;fillColor=none;align=center;verticalAlign=middle;whiteSpace=wrap;rounded=0;dashed=1;fontSize=10;" vertex="1" parent="1">
          <mxGeometry x="130" y="175.5" width="70" height="30" as="geometry" />
        </mxCell>
        <mxCell id="8Tj8SEa8ThOnRHg0HMap-86" value="&lt;b&gt;&lt;font style=&quot;font-size: 14px;&quot;&gt;渠道层&lt;/font&gt;&lt;/b&gt;" style="text;html=1;strokeColor=none;fillColor=none;align=center;verticalAlign=middle;whiteSpace=wrap;rounded=0;dashed=1;fontSize=10;" vertex="1" parent="1">
          <mxGeometry x="130" y="250" width="70" height="30" as="geometry" />
        </mxCell>
        <mxCell id="8Tj8SEa8ThOnRHg0HMap-87" value="&lt;b&gt;&lt;font style=&quot;font-size: 14px;&quot;&gt;服务交互层&lt;/font&gt;&lt;/b&gt;" style="text;html=1;strokeColor=none;fillColor=none;align=center;verticalAlign=middle;whiteSpace=wrap;rounded=0;dashed=1;fontSize=10;" vertex="1" parent="1">
          <mxGeometry x="120" y="305" width="90" height="30" as="geometry" />
        </mxCell>
        <mxCell id="8Tj8SEa8ThOnRHg0HMap-88" value="&lt;b&gt;&lt;font style=&quot;font-size: 14px;&quot;&gt;双录产品层&lt;/font&gt;&lt;/b&gt;" style="text;html=1;strokeColor=none;fillColor=none;align=center;verticalAlign=middle;whiteSpace=wrap;rounded=0;dashed=1;fontSize=10;" vertex="1" parent="1">
          <mxGeometry x="120" y="429.5" width="90" height="30" as="geometry" />
        </mxCell>
        <mxCell id="8Tj8SEa8ThOnRHg0HMap-89" value="&lt;b&gt;&lt;font style=&quot;font-size: 14px;&quot;&gt;基础服务层&lt;/font&gt;&lt;/b&gt;" style="text;html=1;strokeColor=none;fillColor=none;align=center;verticalAlign=middle;whiteSpace=wrap;rounded=0;dashed=1;fontSize=10;" vertex="1" parent="1">
          <mxGeometry x="125" y="660" width="90" height="30" as="geometry" />
        </mxCell>
        <mxCell id="8Tj8SEa8ThOnRHg0HMap-91" value="" style="rounded=0;whiteSpace=wrap;html=1;dashed=1;" vertex="1" parent="1">
          <mxGeometry x="688.5" y="182" width="61.5" height="30" as="geometry" />
        </mxCell>
        <mxCell id="8Tj8SEa8ThOnRHg0HMap-92" value="&lt;span style=&quot;font-size: 10px;&quot;&gt;web&lt;/span&gt;" style="text;html=1;strokeColor=none;fillColor=none;align=center;verticalAlign=middle;whiteSpace=wrap;rounded=0;" vertex="1" parent="1">
          <mxGeometry x="708.5" y="182" width="30" height="30" as="geometry" />
        </mxCell>
      </root>
    </mxGraphModel>
  </diagram>
</mxfile>
